# xmcd
#
# Track frame offsets: 
#        150
#        11800
#        28312
#        53962
#        70385
#        89980
#        108490
#        124860
#        134487
#        150045
#        170132
#        191757
#        211117
#        227842
#        241652
#        266182
#        290962
#
# Disc length: 4100 seconds
#
# Revision: 9
# Processed by: cddbd v1.5.2PL0 Copyright (c) Steve Scherf et al.
# Submitted via: ExactAudioCopyFreeDBPlugin 1.0
#
DISCID=09100211
DTITLE=De La Soul - Stakes Is High
DYEAR=1996
DGENRE=Hip-Hop
TTITLE0=Intro
TTITLE1=Supa Emcees
TTITLE2=The Bizness (feat. Common)
TTITLE3=Wonce Again Long Island
TTITLE4=Dinninit
TTITLE5=Brakes
TTITLE6=Dog Eat Dog
TTITLE7=Baby Baby Baby Baby Ooh Baby
TTITLE8=Long Island Degrees
TTITLE9=Betta Listen
TTITLE10=Itzsoweezee (HOT)
TTITLE11=4 More (feat. Zhane)
TTITLE12=Big Brother Beat (feat. Mos Def)
TTITLE13=Down Syndrome
TTITLE14=Pony Ride (feat. Truth Enola)
TTITLE15=Stakes Is High
TTITLE16=Sunshine
EXTD=
EXTT0=Produced by De La Soul
EXTT1=Produced by De La Soul
EXTT2=Produced by De La Soul
EXTT3=Produced by De La Soul
EXTT4=Produced by Spearhead X
EXTT5=Produced by De La Soul
EXTT6=Produced by De La Soul
EXTT7=Produced by De La Soul
EXTT8=Produced by De La Soul
EXTT9=Produced by De La Soul
EXTT10=Produced by De La Soul
EXTT11=Produced by O'Gee
EXTT12=Produced by Skeff Anslem
EXTT13=Produced by De La Soul
EXTT14=Produced by De La Soul
EXTT15=Produced by Jay Dee
EXTT16=Produced by De La Soul
PLAYORDER=
